<svg width="124" height="150" viewBox="0 0 124 150" fill="none" xmlns="http://www.w3.org/2000/svg">
<path d="M113.175 42.0411L116.436 54.1778C117.363 57.6297 115.906 61.2798 112.856 63.1436C110.461 64.6073 109 67.2119 109 70.0189V101.582C109 108.043 107.045 114.351 103.391 119.679L102.235 121.366C98.815 126.353 94.0522 130.269 88.4981 132.661L73.7437 139.013C65.6136 142.514 56.3966 142.49 48.2845 138.948L34.2154 132.805C28.5281 130.322 23.6855 126.239 20.2774 121.052L19.2574 119.5C15.8276 114.281 14 108.172 14 101.927V70.0189C14 67.2119 12.5392 64.6073 10.1441 63.1436C7.0943 61.2798 5.63681 57.6296 6.56417 54.1778L9.82958 42.0232C12.368 32.5747 20.2087 25.4911 29.8656 23.9218L47.6484 21.0321C51.31 20.4371 54 17.2747 54 13.565V13.25C54 9.24594 57.2459 6 61.25 6C65.2541 6 68.5 9.24594 68.5 13.25V13.5582C68.5 17.2701 71.1954 20.4326 74.8604 21.0208L93.1111 23.9499C102.779 25.5016 110.635 32.5849 113.175 42.0411Z" fill="url(#paint0_linear_4_49)"/>
<path fill-rule="evenodd" clip-rule="evenodd" d="M117.148 54.1778L113.888 42.0411C111.347 32.5849 103.491 25.5016 93.8236 23.9499L75.5729 21.0208C71.9078 20.4326 69.2124 17.2701 69.2124 13.5582V13.25C69.2124 9.24594 65.9665 6 61.9624 6C57.9584 6 54.7124 9.24594 54.7124 13.25V13.565C54.7124 17.2747 52.0224 20.4371 48.3608 21.0321L30.578 23.9218C20.9211 25.4911 13.0804 32.5747 10.542 42.0232L7.27658 54.1778C6.34923 57.6296 7.80671 61.2798 10.8565 63.1436C11.2705 63.3966 11.6566 63.6837 12.012 64L33.3836 69.5621C35.7824 70.1864 38.226 70.624 40.6924 70.8709L57.2052 72.5238C60.3689 72.8405 63.5561 72.8421 66.7201 72.5285L83.5166 70.8638C85.9603 70.6216 88.3819 70.1923 90.76 69.5795L112.413 64C112.768 63.6837 113.154 63.3966 113.568 63.1436C116.618 61.2798 118.076 57.6297 117.148 54.1778Z" fill="black"/>
<path fill-rule="evenodd" clip-rule="evenodd" d="M115.148 54.1778L111.888 42.0411C109.347 32.5849 101.491 25.5016 91.8236 23.9499L73.5729 21.0208C69.9078 20.4326 67.2124 17.2701 67.2124 13.5582V13.25C67.2124 9.24594 63.9665 6 59.9624 6C55.9584 6 52.7124 9.24594 52.7124 13.25V13.565C52.7124 17.2747 50.0224 20.4371 46.3608 21.0321L28.578 23.9218C18.9211 25.4911 11.0804 32.5747 8.54199 42.0232L5.27658 54.1778C4.34923 57.6296 5.80671 61.2798 8.85653 63.1436C9.27051 63.3966 9.65658 63.6837 10.012 64L31.3836 69.5621C33.7824 70.1864 36.226 70.624 38.6924 70.8709L55.2052 72.5238C58.3689 72.8405 61.5561 72.8421 64.7201 72.5285L81.5166 70.8638C83.9603 70.6216 86.3819 70.1923 88.76 69.5795L110.413 64C110.768 63.6837 111.154 63.3966 111.568 63.1436C114.618 61.2798 116.076 57.6297 115.148 54.1778Z" fill="url(#paint1_linear_4_49)"/>
<path fill-rule="evenodd" clip-rule="evenodd" d="M117.148 54.1778L113.888 42.0411C111.347 32.5849 103.491 25.5016 93.8236 23.9499L75.5729 21.0208C71.9078 20.4326 69.2124 17.2701 69.2124 13.5582V13.25C69.2124 9.24594 65.9665 6 61.9624 6C57.9584 6 54.7124 9.24594 54.7124 13.25V13.565C54.7124 17.2747 52.0224 20.4371 48.3608 21.0321L30.578 23.9218C20.9211 25.4911 13.0804 32.5747 10.542 42.0232L7.27658 54.1778C6.34923 57.6296 7.80671 61.2798 10.8565 63.1436C11.2705 63.3966 11.6566 63.6837 12.012 64L33.3836 69.5621C35.7824 70.1864 38.226 70.624 40.6924 70.8709L57.2052 72.5238C60.3689 72.8405 63.5561 72.8421 66.7201 72.5285L83.5166 70.8638C85.9603 70.6216 88.3819 70.1923 90.76 69.5795L112.413 64C112.768 63.6837 113.154 63.3966 113.568 63.1436C116.618 61.2798 118.076 57.6297 117.148 54.1778Z" stroke="black" stroke-width="12"/>
<path d="M113.175 42.0411L116.436 54.1778C117.363 57.6297 115.906 61.2798 112.856 63.1436C110.461 64.6073 109 67.2119 109 70.0189V100.525C109 107.674 106.836 114.656 102.793 120.552C99.0086 126.071 93.7378 130.405 87.5913 133.051L67.3718 141.757C63.3068 143.507 58.6983 143.495 54.6423 141.724L35.0636 133.176C28.8227 130.451 23.5089 125.97 19.7691 120.279C16.0054 114.552 14 107.848 14 100.995V70.0189C14 67.2119 12.5392 64.6073 10.1441 63.1436C7.0943 61.2798 5.63681 57.6296 6.56417 54.1778L9.82958 42.0232C12.368 32.5747 20.2087 25.4911 29.8656 23.9218L47.6484 21.0321C51.31 20.4371 54 17.2747 54 13.565V13.25C54 9.24594 57.2459 6 61.25 6C65.2541 6 68.5 9.24594 68.5 13.25V13.5582C68.5 17.2701 71.1954 20.4326 74.8604 21.0208L93.1111 23.9499C102.779 25.5016 110.635 32.5849 113.175 42.0411Z" stroke="black" stroke-width="12"/>
<defs>
<linearGradient id="paint0_linear_4_49" x1="62" y1="6" x2="62" y2="144" gradientUnits="userSpaceOnUse">
<stop offset="0.387647" stop-color="#EDA763"/>
<stop offset="0.866819" stop-color="#9A562C"/>
</linearGradient>
<linearGradient id="paint1_linear_4_49" x1="60.2124" y1="6" x2="60.2124" y2="73" gradientUnits="userSpaceOnUse">
<stop stop-color="#A77B50"/>
<stop offset="0.892861" stop-color="#38221E"/>
</linearGradient>
</defs>
</svg>
